<svg width="678" height="122" viewBox="0 0 678 122" fill="none" xmlns="http://www.w3.org/2000/svg">
<path fill-rule="evenodd" clip-rule="evenodd" d="M165.807 7.29243H129.449V56.5053H148.785V41.8767H164.454C178.028 41.8767 187.15 37.4664 187.15 24.279C187.194 13.2312 180.429 7.29243 165.807 7.29243ZM161.661 29.3444H148.785V20.0433H161.661C165.894 20.0433 167.902 21.3969 167.902 24.4537C167.902 27.8597 165.894 29.3444 161.661 29.3444ZM221.282 18.0782C213.775 18.0782 209.847 21.2222 208.014 23.7113V7.33606H190.729V56.549H208.014V36.9423C208.014 32.7067 209.148 29.6936 214.211 29.6936C219.362 29.6936 220.191 32.7941 220.191 36.9423V56.549H237.475V33.4053C237.431 23.1436 232.019 18.0782 221.282 18.0782ZM271.651 19.0389L264.057 39.3006L255.894 19.0389H238.13L256.069 56.2435L249.389 68.2519H266.981L289.457 19.0389H271.651ZM320.579 19.0389H337.861V53.7107C337.861 68.2519 325.074 69.6056 311.063 69.6056C294.608 69.6056 288.584 64.4528 288.279 56.8547H304.081C304.778 59.3001 308.314 59.6058 311.019 59.6058C315.08 59.6058 320.492 59.7368 320.492 53.7107V50.4792C317.872 52.8809 314.075 54.1909 308.751 54.1909C297.14 54.1909 287.233 49.2128 287.233 36.4621C287.233 23.7549 295.83 18.0345 307.397 18.0345C313.246 18.0345 317.523 19.5192 320.492 22.4012V19.0389H320.579ZM312.853 43.8856C318.833 43.8856 321.931 41.4402 321.931 36.5058C321.931 31.5277 318.614 29.0387 312.853 29.0387C307.005 29.0387 304.081 31.8335 304.081 36.5058C304.081 41.1345 306.873 43.8856 312.853 43.8856ZM350.738 16.2442C355.933 16.2442 359.599 13.2748 359.599 8.16575C359.599 2.96936 355.933 0 350.738 0C345.543 0 341.878 2.96936 341.878 8.16575C341.878 13.2748 345.543 16.2442 350.738 16.2442ZM342.095 56.549H359.379V19.0826H342.095V56.549ZM397.396 28.4275V19.0826H386.44V9.38844H369.156V19.0826H362.218V28.4275H369.156V40.9598C369.156 54.4093 374.307 57.2041 389.628 57.2041C392.245 57.2041 395.128 56.942 397.44 56.6363V45.414C388.099 45.8942 386.484 45.5448 386.484 40.9161V28.3838H397.396V28.4275ZM424.109 18.0782C411.583 18.0782 403.593 21.3096 402.242 30.4361H417.692C418.172 28.1217 420.311 27.3356 424.109 27.3356C429.04 27.3356 430.218 29.0824 430.218 32.532V33.449C405.471 32.27 400.191 37.4664 400.191 46.1563C400.191 53.8854 405.864 57.5535 416.514 57.5535C423.279 57.5535 427.686 55.2826 430.218 52.7499V56.4616H447.502V32.4884C447.546 20.1742 436.503 18.0782 424.109 18.0782ZM430.262 46.2873C428.386 48.0338 425.418 49.3002 421.665 49.3002C419.394 49.3002 416.819 48.82 416.819 45.9379C416.819 42.0514 421.621 41.7896 430.262 42.2262V46.2873ZM451.736 4.6287V56.5053H469.02V4.6287H451.736ZM478.797 47.9465C476.134 47.9465 473.954 50.0427 473.954 52.7064C473.954 55.3699 476.134 57.5098 478.797 57.5098C481.417 57.5098 483.599 55.4136 483.599 52.7064C483.599 49.999 481.417 47.9465 478.797 47.9465ZM540.6 19.0389H549.724L534.971 56.5053H526.547L516.29 29.3444L506.12 56.5053H497.696L482.943 19.0389H492.067L502.105 46.5493L512.449 19.0389H520.263L530.606 46.5493L540.6 19.0389ZM572.593 17.9909C561.638 17.9909 551.163 23.9733 551.163 37.8159C551.163 51.6582 561.638 57.5969 572.593 57.5969C583.548 57.5969 594.111 51.7019 594.111 37.8159C594.067 23.9733 583.548 17.9909 572.593 17.9909ZM572.593 51.178C562.555 51.178 559.106 44.3658 559.106 37.8159C559.106 31.222 562.555 24.3663 572.593 24.3663C582.634 24.3663 586.08 31.1783 586.08 37.8159C586.08 44.3658 582.634 51.178 572.593 51.178ZM624.797 17.9909C616.721 17.9909 611.527 23.3183 609.824 26.0694V19.0389H601.096V56.5053H609.824V37.4664C609.824 31.6151 613.405 26.1566 622.919 26.1566C625.318 26.1566 627.196 26.4186 628.679 26.8554H628.943V18.2965C627.457 18.0782 626.496 17.9909 624.797 17.9909ZM665.518 56.549H675.776L658.884 33.8857L674.859 19.0389H664.033L644.698 37.2481V7.29243H635.969V56.5053H644.698V47.0732L652.773 39.4751L665.518 56.549Z" fill="#141414"/>
<path fill-rule="evenodd" clip-rule="evenodd" d="M109.552 63.9806H56.4403V10.2349C56.4403 6.33197 53.2908 3.181 49.3896 3.181C46.5623 3.181 44.1285 4.82812 43.0191 7.22716C38.6887 4.54167 33.6422 3.00195 28.2021 3.00195C12.6337 3.00195 0 15.6417 0 31.2175C0 46.7934 12.6337 59.4331 28.2021 59.4331C33.3559 59.4331 38.1875 58.0367 42.3391 55.6018C42.3391 58.4664 42.3391 61.2592 42.3391 63.9806H29.7413C29.2401 63.9447 28.7033 63.9447 28.2021 63.9447C12.6337 63.9447 0 76.5844 0 92.1604C0 107.736 12.6337 120.376 28.2021 120.376C43.7708 120.376 56.4045 107.736 56.4045 92.1604C56.4045 91.4084 56.3686 90.6563 56.2972 89.9402H56.4762V78.124H109.302L109.552 63.9806ZM28.1665 45.3253C20.4001 45.3253 14.0653 38.9876 14.0653 31.2175C14.0653 23.4475 20.4001 17.1097 28.1665 17.1097C35.9328 17.1097 42.2677 23.4475 42.2677 31.2175C42.2677 39.0233 35.9686 45.3253 28.1665 45.3253ZM42.3391 90.9428C42.3391 91.3725 42.3033 91.7663 42.2677 92.1604C42.2677 99.9303 35.9328 106.268 28.1665 106.268C20.4001 106.268 14.0653 99.9303 14.0653 92.1604C14.0653 84.641 19.9349 78.5181 27.3434 78.0884V78.124H42.3391C42.3391 85.2854 42.3391 89.9402 42.3391 89.9402H42.375C42.3033 90.2625 42.3391 90.6205 42.3391 90.9428ZM87.6488 17.1097C95.4153 17.1097 101.75 23.4475 101.75 31.2175C101.75 38.9876 95.4153 45.3253 87.6488 45.3253C79.8825 45.3253 73.5476 38.9876 73.5476 31.2175C73.5476 23.4475 79.8467 17.1097 87.6488 17.1097ZM87.6488 3.00195C103.217 3.00195 115.851 15.6417 115.851 31.2175C115.851 46.7934 103.217 59.4331 87.6488 59.4331C72.0804 59.4331 59.4467 46.7934 59.4467 31.2175C59.4467 15.6417 72.0804 3.00195 87.6488 3.00195Z" fill="#C72031"/>
<path fill-rule="evenodd" clip-rule="evenodd" d="M118.857 69.5705C116.244 67.6371 111.663 64.2713 108.656 62.0512C108.084 61.6573 107.368 61.5859 106.724 61.9079C106.115 62.2303 105.722 62.839 105.722 63.5552C105.722 63.6984 105.722 63.8416 105.722 63.9849H56.1888V78.1283H105.722C105.722 78.2716 105.722 78.4506 105.722 78.5939C105.722 79.2741 106.115 79.9188 106.724 80.2411C107.332 80.5632 108.084 80.4917 108.656 80.062C111.663 77.8419 116.244 74.4761 118.857 72.5427C119.322 72.1845 119.608 71.6474 119.608 71.0745C119.608 70.5016 119.322 69.9287 118.857 69.5705Z" fill="#C72031"/>
</svg>
